<?xml version="1.0" encoding="UTF-8" standalone="no"?>
<!-- Created with Inkscape (http://www.inkscape.org/) -->

<svg
   width="11.387637mm"
   height="12.853771mm"
   viewBox="0 0 11.387637 12.853771"
   version="1.1"
   id="svg1"
   xml:space="preserve"
   inkscape:version="1.4.3 (0d15f75042, 2025-12-25)"
   sodipodi:docname="drawing.svg"
   xmlns:inkscape="http://www.inkscape.org/namespaces/inkscape"
   xmlns:sodipodi="http://sodipodi.sourceforge.net/DTD/sodipodi-0.dtd"
   xmlns="http://www.w3.org/2000/svg"
   xmlns:svg="http://www.w3.org/2000/svg"><sodipodi:namedview
     id="namedview1"
     pagecolor="#ffffff"
     bordercolor="#000000"
     borderopacity="0.25"
     inkscape:showpageshadow="2"
     inkscape:pageopacity="0.0"
     inkscape:pagecheckerboard="0"
     inkscape:deskcolor="#d1d1d1"
     inkscape:document-units="mm"
     inkscape:zoom="2.7909666"
     inkscape:cx="318.52764"
     inkscape:cy="1399.5151"
     inkscape:window-width="1920"
     inkscape:window-height="1011"
     inkscape:window-x="0"
     inkscape:window-y="0"
     inkscape:window-maximized="1"
     inkscape:current-layer="g1"
     showguides="true"><sodipodi:guide
       position="15.054427,316.96282"
       orientation="0,-1"
       id="guide409"
       inkscape:locked="false" /><sodipodi:guide
       position="494.4892,-68.424778"
       orientation="1,0"
       id="guide410"
       inkscape:locked="false" /><inkscape:page
       x="5.0291879e-22"
       y="-1.7503305e-21"
       width="11.387636"
       height="12.85377"
       id="page1"
       margin="0"
       bleed="0" /></sodipodi:namedview><defs
     id="defs1" /><g
     id="g1"
     inkscape:groupmode="layer"
     inkscape:label="1"
     transform="matrix(0.26458332,0,0,0.26458334,103.59953,-357.1491)"><g
       id="g499"
       transform="translate(153.41941,-30.038964)"><path
         id="path498"
         style="fill:#c8102e;fill-opacity:1;stroke-width:0.130249"
         d="m -519.03218,1379.8979 c -1.57182,-0.019 -3.10929,0.124 -4.5957,0.4121 h -0.002 c -0.80527,0.1557 -1.59459,0.3553 -2.36719,0.5957 v -0.01 c -3.82336,1.1804 -7.22586,3.3386 -9.91602,6.1582 0.15261,0.129 0.30616,0.2579 0.45899,0.3867 0.27218,0.7334 0.25797,1.6165 0.38476,2.4121 0.0547,0.5248 0.14192,1.122 0.19532,1.5879 0.45222,3.2914 1.13713,6.5614 2.23047,9.7031 0.96163,-0.9323 2.11418,-1.5705 3.32226,-2.1074 1.421,-8.8609 9.7473,-15.9862 19.20117,-14.1875 3.05502,0.581 3.60703,0.494 3.45118,-0.5332 -0.13906,-0.9146 -4.65841,-3.224 -7.55664,-3.8633 -1.62814,-0.3591 -3.23482,-0.5395 -4.80665,-0.5586 z m 16.4336,35.4219 c -0.36313,-0.019 -0.96432,0.2829 -2.79492,1.2715 -4.48108,2.4205 -10.08721,2.0931 -14.74805,-0.1778 -2.47593,0.7205 -4.78408,2.0906 -7.29492,2.7188 -1.37185,0.9335 -2.87859,1.6341 -4.44922,2.1699 5.88984,3.7447 13.45924,4.902 20.33203,2.3535 5.26708,-1.9532 11.09992,-7.1254 9.27539,-8.2246 -0.1049,-0.063 -0.19927,-0.1051 -0.32031,-0.1113 z" /><path
         style="fill:#000000;fill-opacity:1;stroke-width:0.0642942"
         d="m -544.34143,1428.4238 c 0,-0.042 0.15913,-0.3934 0.35362,-0.7812 0.44077,-0.8788 0.44794,-0.9647 0.0804,-0.9634 -0.15028,0 -0.4466,0.042 -0.65848,0.092 -0.21188,0.05 -0.39498,0.081 -0.40689,0.069 -0.0812,-0.081 1.12714,-0.5955 2.13476,-0.9087 0.36019,-0.112 0.4305,-0.1728 1.47443,-1.2765 1.70454,-1.8021 2.35795,-2.6282 2.7638,-3.4943 0.50627,-1.0803 0.0537,-1.8772 -1.25432,-2.2087 -0.46269,-0.1173 -0.65008,-0.1302 -1.41723,-0.098 -0.48623,0.021 -0.88302,0.017 -0.88177,-0.01 0.004,-0.084 0.15804,-0.3165 0.35304,-0.5345 0.41155,-0.4599 1.04349,-0.9102 2.63511,-1.8774 l 0.61554,-0.374 -0.19809,-0.2368 c -0.10895,-0.1302 -0.40396,-0.4971 -0.65558,-0.8154 -2.97151,-3.7585 -4.19939,-8.7375 -3.48822,-14.1447 0.53934,-4.1007 2.28081,-8.3671 4.5641,-11.1814 0.77843,-0.9595 1.04602,-1.2391 1.08228,-1.1305 0.0176,0.053 0.0786,0.53 0.13534,1.0604 0.61765,5.7695 1.77438,10.564 3.55031,14.7157 0.71314,1.6671 2.60698,5.3818 2.69759,5.2912 0.0158,-0.016 -0.20652,-0.5601 -0.49413,-1.2095 -0.65326,-1.4751 -0.8898,-2.1716 -0.97991,-2.8855 -0.22539,-1.7856 0.7888,-3.1616 3.22978,-4.3821 0.40541,-0.2027 0.74699,-0.3587 0.75906,-0.3466 0.0121,0.012 -0.0208,0.1915 -0.0731,0.3988 -0.36171,1.4336 -0.4459,4.1596 -0.20126,6.5168 0.22895,2.206 0.75892,3.6629 1.4653,4.0282 0.54091,0.2797 1.83843,0.6573 2.94107,0.8558 2.39047,0.4305 4.47058,0.2847 6.17248,-0.4325 0.80409,-0.3389 1.19126,-0.4228 1.79166,-0.388 0.37725,0.022 0.59515,0.075 0.90999,0.2237 l 0.41397,0.195 -0.70724,0.2286 c -0.78757,0.2546 -0.74269,0.2728 0.43233,0.1754 0.75214,-0.062 0.75434,-0.062 0.99656,0.1039 0.3825,0.2622 1.733,0.8939 2.32032,1.0855 0.29398,0.096 0.52444,0.1843 0.51213,0.1966 -0.0123,0.012 -0.75916,-0.01 -1.65965,-0.046 -1.72408,-0.072 -4.1558,-0.037 -5.23775,0.075 -1.63233,0.1688 -2.80082,0.5012 -4.9828,1.4172 -0.68956,0.2894 -1.60093,0.6694 -2.02527,0.8442 -0.85893,0.3539 -2.37579,0.8889 -2.52041,0.8889 -0.0598,0 -0.009,-0.099 0.1407,-0.2732 0.30447,-0.3552 0.66415,-1.0959 0.71036,-1.4627 l 0.0364,-0.2894 -0.13033,0.3468 c -0.31111,0.8277 -1.08914,1.7049 -2.08717,2.3532 -1.73316,1.1258 -4.40528,2.0567 -7.43943,2.5919 l -0.61702,0.1088 -1.27184,1.4145 c -0.69952,0.778 -1.392,1.5447 -1.53886,1.7038 -0.14686,0.1591 -0.78584,0.868 -1.41995,1.5752 -0.63412,0.7072 -1.54213,1.7199 -2.0178,2.2503 -0.47567,0.5304 -0.87454,0.9765 -0.88638,0.9912 -0.0119,0.015 -0.0215,-0.01 -0.0215,-0.049 z"
         id="path499" /></g></g></svg>
