<?xml version="1.0" encoding="UTF-8" standalone="no"?>
<!-- Created with Inkscape (http://www.inkscape.org/) -->

<svg
   width="13.606574mm"
   height="15.004479mm"
   viewBox="0 0 13.606574 15.004479"
   version="1.1"
   id="svg1"
   xml:space="preserve"
   inkscape:version="1.4.3 (0d15f75042, 2025-12-25)"
   sodipodi:docname="drawing.svg"
   xmlns:inkscape="http://www.inkscape.org/namespaces/inkscape"
   xmlns:sodipodi="http://sodipodi.sourceforge.net/DTD/sodipodi-0.dtd"
   xmlns="http://www.w3.org/2000/svg"
   xmlns:svg="http://www.w3.org/2000/svg"><sodipodi:namedview
     id="namedview1"
     pagecolor="#ffffff"
     bordercolor="#000000"
     borderopacity="0.25"
     inkscape:showpageshadow="2"
     inkscape:pageopacity="0.0"
     inkscape:pagecheckerboard="0"
     inkscape:deskcolor="#d1d1d1"
     inkscape:document-units="mm"
     inkscape:zoom="2.7909666"
     inkscape:cx="318.52764"
     inkscape:cy="1399.5151"
     inkscape:window-width="1920"
     inkscape:window-height="1011"
     inkscape:window-x="0"
     inkscape:window-y="0"
     inkscape:window-maximized="1"
     inkscape:current-layer="g1"
     showguides="true"><sodipodi:guide
       position="38.413874,325.54044"
       orientation="0,-1"
       id="guide409"
       inkscape:locked="false" /><sodipodi:guide
       position="517.84866,-59.847177"
       orientation="1,0"
       id="guide410"
       inkscape:locked="false" /><inkscape:page
       x="0"
       y="0"
       width="13.606574"
       height="15.004479"
       id="page1"
       margin="0"
       bleed="0" /></sodipodi:namedview><defs
     id="defs1" /><g
     id="g1"
     inkscape:groupmode="layer"
     inkscape:label="1"
     transform="matrix(0.26458332,0,0,0.26458334,126.95897,-363.576)"><path
       id="path494"
       style="fill:#fbffe4;fill-opacity:1;stroke-width:0.0642942"
       d="m -450.92773,1374.1562 c -7.00494,0.2005 -13.67253,3.6039 -18.54409,8.5384 -3.5206,3.5054 -6.08038,7.9616 -7.25171,12.7951 -1.4996,5.9207 -1.01942,12.4903 2.06923,17.8384 -1.2323,1.1404 -1.92292,2.714 -2.37695,4.2949 -0.55725,1.171 -0.0735,2.7123 1.125,3.2579 -1.71151,0.8186 -3.43366,2.1389 -3.75,4.1328 -0.0255,0.6877 -0.24597,1.3791 -0.17449,2.056 0.0397,0.6649 0.46054,1.2556 1.01238,1.6041 -0.38139,0.6333 0.68633,0.8051 0.9991,1.2173 1.46752,1.2785 3.75062,1.2629 5.272,0.087 1.78623,-1.2872 2.95217,-3.2126 4.49881,-4.7514 0.83581,-0.9278 1.67162,-1.8556 2.50743,-2.7833 1.44024,0.4422 2.49525,1.6919 3.95194,2.1339 8.43097,4.1805 19.14624,3.5451 26.83174,-1.9744 2.35136,-1.8126 5.07074,-3.6285 6.03355,-6.5926 0.7937,-2.082 0.0183,-4.7806 -2.07699,-5.7603 -1.86031,-0.8902 -4.06958,-0.5031 -5.87305,0.3418 -2.87673,-1.5838 -5.73635,-3.2659 -8.81063,-4.4257 -2.38216,-0.378 -4.6206,0.7161 -6.94132,0.9882 -0.84359,0.1012 -1.61784,-0.3264 -2.4375,-0.3477 -0.57919,-1.4694 -0.19016,-3.1074 -0.34861,-4.6489 0.041,-2.2565 1.26557,-4.6005 0.27048,-6.8042 -0.31831,-0.4313 0.31501,-0.8758 0.41768,-1.3135 2.22605,-4.8245 7.85267,-8.0642 13.15102,-6.9927 2.59045,1.0885 6.04025,0.4744 7.66373,-1.9516 1.2851,-1.9514 0.52923,-4.7183 -1.2881,-6.0591 -2.72068,-2.3529 -6.21819,-3.5877 -9.6787,-4.3667 -2.05917,-0.3818 -4.15717,-0.574 -6.25195,-0.5137 z" /><g
       id="g496"
       transform="translate(69.537628,-1.727609)"><path
         id="path495"
         style="fill:#c8102e;fill-opacity:1;stroke-width:0.130249"
         d="m -519.03218,1379.8979 c -1.57182,-0.019 -3.10929,0.124 -4.5957,0.4121 h -0.002 c -0.80527,0.1557 -1.59459,0.3553 -2.36719,0.5957 v -0.01 c -3.82336,1.1804 -7.22586,3.3386 -9.91602,6.1582 0.15261,0.129 0.30616,0.2579 0.45899,0.3867 0.27218,0.7334 0.25797,1.6165 0.38476,2.4121 0.0547,0.5248 0.14192,1.122 0.19532,1.5879 0.45222,3.2914 1.13713,6.5614 2.23047,9.7031 0.96163,-0.9323 2.11418,-1.5705 3.32226,-2.1074 1.421,-8.8609 9.7473,-15.9862 19.20117,-14.1875 3.05502,0.581 3.60703,0.494 3.45118,-0.5332 -0.13906,-0.9146 -4.65841,-3.224 -7.55664,-3.8633 -1.62814,-0.3591 -3.23482,-0.5395 -4.80665,-0.5586 z m 16.4336,35.4219 c -0.36313,-0.019 -0.96432,0.2829 -2.79492,1.2715 -4.48108,2.4205 -10.08721,2.0931 -14.74805,-0.1778 -2.47593,0.7205 -4.78408,2.0906 -7.29492,2.7188 -1.37185,0.9335 -2.87859,1.6341 -4.44922,2.1699 5.88984,3.7447 13.45924,4.902 20.33203,2.3535 5.26708,-1.9532 11.09992,-7.1254 9.27539,-8.2246 -0.1049,-0.063 -0.19927,-0.1051 -0.32031,-0.1113 z" /><path
         style="fill:#000000;fill-opacity:1;stroke-width:0.0642942"
         d="m -544.34143,1428.4238 c 0,-0.042 0.15913,-0.3934 0.35362,-0.7812 0.44077,-0.8788 0.44794,-0.9647 0.0804,-0.9634 -0.15028,0 -0.4466,0.042 -0.65848,0.092 -0.21188,0.05 -0.39498,0.081 -0.40689,0.069 -0.0812,-0.081 1.12714,-0.5955 2.13476,-0.9087 0.36019,-0.112 0.4305,-0.1728 1.47443,-1.2765 1.70454,-1.8021 2.35795,-2.6282 2.7638,-3.4943 0.50627,-1.0803 0.0537,-1.8772 -1.25432,-2.2087 -0.46269,-0.1173 -0.65008,-0.1302 -1.41723,-0.098 -0.48623,0.021 -0.88302,0.017 -0.88177,-0.01 0.004,-0.084 0.15804,-0.3165 0.35304,-0.5345 0.41155,-0.4599 1.04349,-0.9102 2.63511,-1.8774 l 0.61554,-0.374 -0.19809,-0.2368 c -0.10895,-0.1302 -0.40396,-0.4971 -0.65558,-0.8154 -2.97151,-3.7585 -4.19939,-8.7375 -3.48822,-14.1447 0.53934,-4.1007 2.28081,-8.3671 4.5641,-11.1814 0.77843,-0.9595 1.04602,-1.2391 1.08228,-1.1305 0.0176,0.053 0.0786,0.53 0.13534,1.0604 0.61765,5.7695 1.77438,10.564 3.55031,14.7157 0.71314,1.6671 2.60698,5.3818 2.69759,5.2912 0.0158,-0.016 -0.20652,-0.5601 -0.49413,-1.2095 -0.65326,-1.4751 -0.8898,-2.1716 -0.97991,-2.8855 -0.22539,-1.7856 0.7888,-3.1616 3.22978,-4.3821 0.40541,-0.2027 0.74699,-0.3587 0.75906,-0.3466 0.0121,0.012 -0.0208,0.1915 -0.0731,0.3988 -0.36171,1.4336 -0.4459,4.1596 -0.20126,6.5168 0.22895,2.206 0.75892,3.6629 1.4653,4.0282 0.54091,0.2797 1.83843,0.6573 2.94107,0.8558 2.39047,0.4305 4.47058,0.2847 6.17248,-0.4325 0.80409,-0.3389 1.19126,-0.4228 1.79166,-0.388 0.37725,0.022 0.59515,0.075 0.90999,0.2237 l 0.41397,0.195 -0.70724,0.2286 c -0.78757,0.2546 -0.74269,0.2728 0.43233,0.1754 0.75214,-0.062 0.75434,-0.062 0.99656,0.1039 0.3825,0.2622 1.733,0.8939 2.32032,1.0855 0.29398,0.096 0.52444,0.1843 0.51213,0.1966 -0.0123,0.012 -0.75916,-0.01 -1.65965,-0.046 -1.72408,-0.072 -4.1558,-0.037 -5.23775,0.075 -1.63233,0.1688 -2.80082,0.5012 -4.9828,1.4172 -0.68956,0.2894 -1.60093,0.6694 -2.02527,0.8442 -0.85893,0.3539 -2.37579,0.8889 -2.52041,0.8889 -0.0598,0 -0.009,-0.099 0.1407,-0.2732 0.30447,-0.3552 0.66415,-1.0959 0.71036,-1.4627 l 0.0364,-0.2894 -0.13033,0.3468 c -0.31111,0.8277 -1.08914,1.7049 -2.08717,2.3532 -1.73316,1.1258 -4.40528,2.0567 -7.43943,2.5919 l -0.61702,0.1088 -1.27184,1.4145 c -0.69952,0.778 -1.392,1.5447 -1.53886,1.7038 -0.14686,0.1591 -0.78584,0.868 -1.41995,1.5752 -0.63412,0.7072 -1.54213,1.7199 -2.0178,2.2503 -0.47567,0.5304 -0.87454,0.9765 -0.88638,0.9912 -0.0119,0.015 -0.0215,-0.01 -0.0215,-0.049 z"
         id="path496" /></g></g></svg>
